# xmcd
#
# Track frame offsets: 
#        150
#        15899
#        28875
#        41474
#        63073
#        79570
#        91871
#        106197
#        114295
#        135519
#
# Disc length: 2053 seconds
#
# Revision: 0
# Processed by: cddbd v1.5.2PL0 Copyright (c) Steve Scherf et al.
# Submitted via: ExactAudioCopy v0.95b4
#
DISCID=6308030a
DTITLE=Death Valley Durso and the Reduced Speed Limit Band - Speed Lim
DTITLE=it 55
DYEAR=1976
DGENRE=Country
TTITLE0=You And A Loaf Of Bread And A Jug Of Wine
TTITLE1=Smokey Bars And Loud Guitars
TTITLE2=Ballad Of Padre Island
TTITLE3=It Couldn't Be Better
TTITLE4=D, FW Turnpike
TTITLE5=Cowboy Talkin'
TTITLE6=Amie
TTITLE7=I Can't Believe
TTITLE8=Sincerely Sue
TTITLE9=Pop Top Of My Heart
EXTD=
EXTT0=
EXTT1=
EXTT2=
EXTT3=
EXTT4=
EXTT5=
EXTT6=
EXTT7=
EXTT8=
EXTT9=
PLAYORDER=
